<?xml version="1.0" standalone="no"?>
<!DOCTYPE svg PUBLIC "-//W3C//DTD SVG 20010904//EN"
 "http://www.w3.org/TR/2001/REC-SVG-20010904/DTD/svg10.dtd">
<svg version="1.0" xmlns="http://www.w3.org/2000/svg"
 width="1656.000000pt" height="326.000000pt" viewBox="0 0 1656.000000 326.000000"
 preserveAspectRatio="xMidYMid meet">

<g transform="translate(0.000000,326.000000) scale(0.100000,-0.100000)"
fill="#000000" stroke="none">
<path d="M1350 3125 c0 -116 -1 -125 -19 -125 -38 0 -161 -32 -155 -41 3 -5
-1 -6 -8 -4 -8 3 -33 -1 -57 -10 -24 -8 -47 -15 -52 -15 -4 0 -20 22 -35 50
-15 27 -30 47 -35 45 -4 -3 -11 0 -15 6 -4 8 -3 9 4 5 19 -12 13 6 -16 48 -25
36 -67 68 -47 36 5 -8 4 -11 -3 -6 -13 8 -244 -123 -236 -135 3 -5 -1 -6 -9
-3 -7 2 -24 -4 -37 -14 l-23 -19 20 -29 c11 -16 32 -52 48 -81 15 -29 32 -50
38 -46 6 3 7 1 3 -6 -4 -6 -2 -18 4 -26 10 -11 -6 -31 -80 -104 -59 -59 -89
-95 -84 -103 4 -7 4 -10 -1 -6 -4 4 -14 3 -22 -4 -14 -12 -49 1 -85 30 -9 8
-21 11 -26 8 -4 -3 -16 4 -26 15 -10 12 -24 18 -32 15 -8 -3 -12 -2 -9 4 6 9
-25 30 -45 30 -6 0 -15 -10 -20 -22 -10 -23 -20 -41 -53 -90 -10 -15 -15 -33
-11 -39 4 -7 3 -9 -2 -6 -6 3 -28 -28 -51 -69 -23 -41 -36 -72 -30 -68 7 3 3
-2 -7 -10 -18 -14 -15 -21 7 -17 4 0 7 -3 7 -9 0 -5 24 -22 53 -36 28 -15 71
-37 94 -51 l42 -24 -19 -44 c-10 -24 -29 -88 -41 -144 l-23 -100 -120 -3 -121
-3 -3 -188 -2 -189 27 2 c76 5 234 -1 229 -9 -7 -11 38 -192 57 -230 7 -15 12
-32 9 -39 -2 -6 -48 -37 -103 -68 -54 -31 -99 -59 -99 -62 0 -7 155 -282 172
-305 12 -15 22 -12 115 43 56 33 106 60 111 60 6 0 17 -11 25 -24 21 -31 157
-166 168 -166 20 0 6 -37 -46 -125 -56 -95 -63 -111 -45 -100 6 3 7 -1 4 -9
-3 -9 -1 -16 5 -16 6 0 29 -11 50 -24 21 -14 42 -22 45 -19 3 4 6 1 6 -6 0 -7
17 -20 38 -29 20 -10 49 -26 64 -36 15 -10 33 -14 39 -10 7 4 9 3 6 -3 -3 -5
7 -17 22 -26 l29 -17 36 61 c20 33 33 65 30 71 -4 7 -2 8 4 4 7 -4 12 -2 12 4
0 20 39 67 60 73 11 3 18 1 15 -3 -6 -10 61 -32 176 -56 68 -15 79 -20 79 -38
1 -12 2 -66 3 -121 l2 -100 185 0 185 0 2 118 c0 65 3 121 6 123 3 3 20 8 39
10 53 8 146 33 198 54 l49 19 33 -57 c18 -31 40 -69 49 -84 9 -15 19 -24 23
-21 4 4 4 0 1 -8 -3 -9 1 -22 9 -29 13 -10 41 2 175 80 l158 93 -54 94 c-29
51 -56 99 -58 106 -3 6 42 60 99 118 l103 107 29 -17 c170 -102 175 -104 188
-90 8 8 30 46 51 84 21 39 41 75 45 80 14 18 81 147 78 149 -63 41 -132 75
-140 70 -6 -4 -8 -3 -5 3 4 6 -9 18 -27 28 l-33 18 24 76 c13 42 29 103 34
136 6 33 15 64 19 69 5 4 60 7 124 7 l116 -2 0 191 0 191 -122 -2 -122 -1 -13
65 c-7 35 -24 100 -38 143 -14 43 -21 81 -17 85 4 4 34 22 67 40 33 18 77 43
98 56 36 23 38 26 24 46 -7 12 -31 53 -53 91 -21 37 -51 89 -66 115 -16 25
-33 56 -40 69 -13 26 -21 27 -42 6 -9 -8 -16 -13 -16 -10 0 3 -34 -15 -75 -39
-73 -43 -115 -56 -115 -35 0 17 -161 172 -174 167 -17 -7 -14 33 5 63 40 63
68 123 62 134 -3 6 -3 8 2 4 8 -7 41 29 34 37 -7 6 -198 115 -202 115 -3 0
-28 16 -57 35 -29 19 -55 35 -59 35 -4 0 -14 -12 -22 -27 -10 -21 -64 -114
-104 -180 0 -1 -45 11 -98 27 -54 16 -116 31 -138 34 -23 2 -43 7 -46 10 -3 3
-5 59 -4 125 l2 121 -190 0 -191 0 0 -125z m432 -404 c379 -99 664 -388 756
-766 27 -110 23 -374 -7 -480 -13 -44 -24 -87 -24 -95 -1 -8 -5 -17 -8 -20
-15 -11 -38 -82 -33 -98 5 -13 4 -14 -4 -3 -8 11 -11 9 -17 -8 -8 -27 -88
-146 -122 -183 -16 -16 -22 -31 -17 -40 4 -7 4 -10 -1 -6 -4 4 -40 -21 -79
-55 -102 -90 -229 -168 -321 -197 -22 -7 -44 -16 -50 -20 -32 -23 -189 -44
-320 -44 -199 1 -362 43 -510 133 -37 23 -71 41 -75 41 -5 0 -10 3 -12 8 -2 4
-19 20 -38 36 -137 112 -248 259 -309 408 -134 329 -91 707 115 995 153 215
408 372 667 414 90 14 323 3 409 -20z"/>
<path d="M840 1725 l0 -615 695 0 695 0 0 615 0 615 -695 0 -695 0 0 -615z
m118 541 c-2 -13 -10 -21 -23 -21 -23 0 -33 34 -14 45 20 13 40 -1 37 -24z
m852 -531 l0 -485 -272 2 -273 3 -3 483 -2 482 275 0 275 0 0 -485z m-650 330
c5 3 12 0 16 -7 4 -7 4 -10 -1 -6 -4 4 -14 3 -22 -3 -10 -9 -13 -8 -13 0 0 7
-4 9 -10 6 -5 -3 -10 -1 -10 4 0 6 5 11 10 11 6 0 11 12 12 28 1 24 2 23 5 -6
2 -18 8 -30 13 -27z m-40 25 c0 -6 -32 -10 -77 -10 -54 0 -73 3 -63 10 20 13
140 13 140 0z m960 1 c0 -5 -38 -11 -85 -13 -81 -3 -94 0 -78 15 10 11 163 8
163 -2z m-929 -194 c-10 -9 -11 -8 -5 6 3 10 9 15 12 12 3 -3 0 -11 -7 -18z
m858 -16 c78 4 87 1 81 -26 -1 -5 -2 -21 -2 -34 0 -14 -3 -18 -8 -11 -5 8 -34
11 -91 8 l-84 -3 4 44 c2 25 6 38 11 31 5 -9 31 -11 89 -9z m-899 -2 c0 -9
-79 -21 -91 -14 -5 4 -7 10 -5 14 6 9 96 9 96 0z m50 -14 c4 3 10 -9 12 -27 5
-28 4 -29 -9 -13 -13 18 -13 18 -14 -1 -1 -16 -2 -17 -6 -1 -2 9 -9 17 -14 17
-5 0 -9 7 -9 16 0 8 5 12 10 9 6 -3 10 0 11 7 0 10 2 10 6 0 2 -6 8 -10 13 -7z
m-105 -35 c-3 -5 -12 -10 -20 -10 -8 0 -17 5 -20 10 -4 6 5 10 20 10 15 0 24
-4 20 -10z m105 -210 c2 35 4 38 7 16 3 -15 2 -38 -1 -50 -5 -19 -11 -21 -41
-18 -19 2 -35 8 -35 14 0 5 5 6 10 3 6 -3 13 1 16 9 3 9 10 13 15 10 5 -3 10
10 11 28 1 29 2 28 8 -12 l7 -45 3 45z m805 17 l40 -4 -42 -1 c-36 -2 -43 -5
-43 -22 0 -17 7 -20 42 -20 52 0 47 -6 -12 -12 l-45 -5 4 45 c2 24 6 40 10 34
3 -6 24 -12 46 -15z m-816 -261 c-1 -23 -3 -25 -6 -8 -2 12 -9 20 -14 17 -5
-4 -9 -1 -9 4 0 7 -26 12 -62 13 l-63 1 65 6 c84 8 90 5 89 -33z m18 12 c-3
-8 -6 -5 -6 6 -1 11 2 17 5 13 3 -3 4 -12 1 -19z m917 16 c9 -3 16 -11 16 -18
0 -8 -26 -10 -86 -7 -65 2 -89 0 -95 -10 -6 -10 -9 -6 -9 14 l0 27 79 0 c44 0
86 -3 95 -6z"/>
<path d="M1290 1735 l0 -455 250 0 250 0 0 455 0 455 -250 0 -250 0 0 -455z
m215 330 c56 -55 16 -145 -63 -145 -50 0 -86 36 -86 85 0 77 95 115 149 60z"/>
<path d="M1920 1850 c0 -20 5 -21 78 -18 60 2 77 6 77 18 0 12 -17 16 -77 18
-73 3 -78 2 -78 -18z"/>
<path d="M4365 2465 c-217 -47 -329 -153 -355 -333 -17 -125 16 -234 103 -329
59 -64 122 -108 268 -187 187 -102 242 -168 242 -295 0 -83 -27 -140 -84 -178
-34 -22 -55 -27 -124 -31 -73 -4 -90 -1 -138 21 -67 30 -110 85 -135 169 l-17
58 -72 0 -73 0 0 -164 0 -164 88 -16 c136 -25 335 -36 437 -26 251 26 392 145
425 356 14 88 0 185 -37 261 -35 72 -136 166 -243 227 -272 156 -308 186 -330
278 -41 169 107 289 295 237 56 -15 115 -80 141 -154 l21 -60 72 -3 71 -3 0
155 0 155 -52 10 c-171 34 -390 41 -503 16z"/>
<path d="M11082 2460 c-166 -44 -301 -153 -372 -301 -58 -122 -80 -220 -87
-381 -13 -296 52 -517 189 -643 114 -106 241 -149 438 -147 339 2 537 147 629
462 24 81 34 208 28 359 -6 175 -31 284 -90 395 -69 130 -205 228 -362 261
-101 21 -282 19 -373 -5z m283 -124 c85 -39 134 -115 176 -272 27 -100 38
-439 20 -579 -32 -234 -121 -363 -261 -373 -189 -14 -292 112 -331 406 -16
118 -6 466 15 552 22 87 41 134 76 185 68 98 196 132 305 81z"/>
<path d="M14905 2470 c-247 -53 -415 -220 -487 -485 -19 -69 -22 -107 -22
-275 0 -168 3 -207 22 -282 55 -222 173 -356 362 -412 132 -40 370 -39 570 2
l85 18 3 162 2 162 -74 0 -74 0 -7 -38 c-11 -65 -57 -144 -103 -176 -37 -26
-54 -31 -118 -34 -96 -5 -148 14 -204 74 -49 53 -82 121 -107 219 -14 57 -18
113 -18 305 0 261 12 344 64 456 56 119 135 182 243 191 114 11 194 -45 234
-164 l23 -68 70 -3 71 -3 0 159 0 159 -82 18 c-93 20 -386 30 -453 15z"/>
<path d="M15981 2465 c-151 -34 -266 -117 -317 -228 -25 -55 -29 -73 -29 -162
0 -88 3 -107 28 -159 55 -118 129 -184 331 -292 123 -66 210 -139 237 -199 38
-82 17 -207 -42 -262 -55 -50 -169 -68 -264 -42 -60 16 -125 88 -154 172 l-23
67 -69 0 -69 0 0 -164 c0 -162 0 -164 23 -169 158 -39 488 -52 594 -24 142 37
247 120 301 235 25 52 27 68 27 177 0 112 -2 124 -29 180 -48 97 -136 176
-311 275 -164 92 -228 144 -256 205 -43 94 -11 209 71 255 59 33 183 36 244 6
47 -24 91 -82 113 -152 l17 -54 73 0 73 0 0 154 0 153 -82 18 c-114 24 -400
30 -487 10z"/>
<path d="M5120 2435 c0 -30 5 -37 33 -48 17 -8 41 -24 52 -37 19 -21 20 -38
23 -594 2 -395 0 -583 -8 -609 -9 -30 -20 -42 -56 -59 -39 -19 -44 -26 -44
-55 l0 -33 525 0 525 0 1 73 c0 39 4 127 7 195 l7 122 -72 0 -71 0 -18 -55
c-23 -76 -72 -155 -112 -181 -39 -27 -117 -37 -252 -32 l-95 3 -3 288 -2 287
95 0 c133 0 165 -21 190 -122 7 -27 10 -28 66 -28 l59 0 0 215 0 215 -58 0
-58 0 -11 -43 c-25 -91 -69 -117 -205 -117 l-78 0 0 261 0 260 168 -3 c205 -4
213 -8 270 -129 l37 -80 70 3 70 3 0 165 0 165 -527 3 -528 2 0 -35z"/>
<path d="M6380 2435 c0 -30 5 -37 33 -48 17 -8 41 -24 52 -37 19 -21 20 -38
23 -594 2 -395 0 -583 -8 -609 -9 -30 -20 -42 -56 -59 -39 -19 -44 -26 -44
-55 l0 -33 200 0 200 0 0 33 c0 28 -5 35 -42 52 -74 36 -72 23 -78 545 -3 256
-4 467 -2 469 3 6 2 8 94 -159 47 -85 187 -330 311 -545 l225 -390 136 -3 136
-3 1 643 c0 471 3 652 12 678 9 26 23 40 54 55 40 20 53 41 45 78 -3 16 -19
17 -200 15 l-197 -3 -3 -32 c-3 -29 1 -33 42 -51 24 -11 50 -31 58 -44 10 -18
14 -123 19 -458 3 -239 4 -439 1 -443 -2 -5 -38 56 -79 135 -41 78 -172 313
-291 521 l-215 377 -214 0 -213 0 0 -35z"/>
<path d="M7870 2436 c0 -31 4 -38 33 -49 17 -8 41 -24 52 -37 19 -21 20 -38
23 -602 3 -653 5 -633 -69 -662 -35 -14 -39 -19 -39 -51 l0 -35 285 0 285 0 0
33 c0 29 -4 34 -42 47 -79 28 -83 40 -86 301 l-3 229 128 0 c299 1 461 76 544
253 37 81 52 185 39 277 -23 162 -112 251 -298 302 -70 19 -113 21 -464 25
l-388 5 0 -36z m675 -107 c54 -15 119 -82 136 -139 18 -61 18 -233 0 -295 -18
-61 -82 -129 -137 -144 -22 -7 -83 -14 -136 -18 l-98 -6 0 306 0 307 98 0 c53
0 115 -5 137 -11z"/>
<path d="M9210 2436 c0 -33 4 -38 38 -51 75 -30 72 -4 72 -650 0 -643 3 -617
-69 -650 -36 -16 -41 -22 -41 -52 l0 -33 280 0 280 0 0 33 c0 30 -4 36 -39 49
-73 29 -76 42 -76 303 l0 230 42 3 c61 5 114 -13 150 -50 20 -20 68 -110 123
-228 50 -107 109 -228 132 -267 l42 -73 208 0 208 0 0 34 c0 30 -4 36 -34 46
-61 20 -110 87 -200 273 -89 184 -136 246 -217 288 -22 10 -39 21 -39 24 0 2
31 20 70 41 95 49 150 100 191 176 34 62 34 65 34 188 0 119 -2 128 -29 183
-50 99 -123 151 -264 189 -70 19 -112 21 -469 25 l-393 5 0 -36z m681 -111
c55 -20 105 -67 132 -125 17 -37 21 -66 21 -155 1 -99 -2 -116 -26 -167 -47
-100 -126 -138 -288 -138 l-80 0 0 300 0 300 99 0 c63 0 114 -6 142 -15z"/>
<path d="M12130 2434 c0 -30 4 -37 33 -49 18 -7 41 -23 52 -35 19 -22 20 -38
20 -615 0 -579 0 -593 -20 -615 -11 -13 -35 -29 -52 -37 -28 -11 -33 -18 -33
-48 l0 -35 200 0 200 0 0 33 c0 30 -4 36 -39 49 -78 31 -75 14 -81 543 -3 258
-4 472 -3 474 4 6 5 6 58 -94 44 -83 462 -814 542 -948 l34 -57 135 0 134 0 2
659 c3 652 3 660 24 688 12 15 35 32 53 37 28 8 31 13 31 47 l0 39 -200 0
-200 0 0 -35 c0 -31 4 -36 45 -54 29 -13 49 -30 57 -48 13 -30 30 -881 18
-896 -3 -4 -40 59 -82 140 -42 82 -126 236 -188 343 -62 107 -157 275 -213
373 l-101 177 -213 0 -213 0 0 -36z"/>
<path d="M13620 2431 c0 -34 3 -39 32 -47 19 -6 42 -23 55 -43 l23 -34 0 -566
c0 -633 2 -618 -70 -653 -36 -19 -50 -41 -42 -70 4 -17 25 -18 278 -18 l274 0
0 35 c0 31 -4 36 -44 54 -37 16 -46 26 -55 58 -7 25 -11 231 -11 593 0 625 -2
608 73 643 32 15 37 22 37 52 l0 35 -275 0 -275 0 0 -39z"/>
<path d="M11887 398 c-26 -134 -48 -249 -47 -255 0 -22 40 -14 50 10 5 12 27
119 50 237 22 118 43 223 46 233 4 13 -1 17 -23 17 l-29 0 -47 -242z"/>
<path d="M6040 610 c-78 -14 -120 -59 -120 -129 0 -58 17 -83 87 -128 62 -39
81 -71 67 -110 -22 -63 -111 -86 -184 -48 -34 17 -49 10 -50 -23 0 -21 64 -42
128 -42 124 0 207 104 157 199 -8 16 -37 43 -65 61 -71 46 -80 56 -80 96 0 65
72 100 145 70 20 -9 39 -16 41 -16 8 0 4 49 -4 54 -21 12 -90 22 -122 16z"/>
<path d="M10438 595 c-15 -32 1 -50 35 -41 43 10 44 66 1 66 -16 0 -28 -8 -36
-25z"/>
<path d="M14061 598 c-11 -29 -4 -48 18 -48 26 0 40 14 43 40 3 21 -2 26 -25
28 -21 3 -29 -2 -36 -20z"/>
<path d="M8162 597 c-7 -8 -32 -114 -56 -237 -34 -177 -40 -223 -29 -227 27
-10 42 7 53 64 25 125 21 118 76 121 27 1 64 4 82 8 114 19 173 211 79 261
-45 23 -188 31 -205 10z m168 -55 c15 -12 22 -29 22 -53 0 -80 -54 -129 -142
-129 -47 0 -47 -1 -24 118 l17 82 52 0 c36 0 60 -6 75 -18z"/>
<path d="M11573 598 c-14 -18 -96 -444 -88 -457 9 -16 227 -15 243 1 31 31 14
38 -88 38 l-99 0 5 28 c3 15 11 54 17 87 l12 60 85 5 c70 4 85 8 88 23 3 15
-6 17 -77 17 -92 0 -88 -6 -69 96 l11 63 101 3 c96 3 101 4 104 26 3 22 2 22
-116 22 -84 0 -122 -4 -129 -12z"/>
<path d="M12777 553 c-3 -10 -8 -30 -11 -45 -5 -22 -12 -28 -32 -28 -28 0 -44
-28 -23 -40 7 -5 16 -7 20 -4 18 11 18 -21 -1 -111 -25 -121 -25 -157 -2 -178
22 -20 92 -23 110 -5 22 22 14 40 -15 34 -61 -13 -67 19 -35 174 l18 85 49 5
c37 4 51 10 53 23 3 14 -4 17 -43 17 l-47 0 6 45 c7 43 6 45 -18 45 -15 0 -26
-7 -29 -17z"/>
<path d="M6334 471 c-123 -56 -171 -292 -68 -331 36 -14 134 -12 164 3 30 15
43 54 14 43 -11 -5 -45 -10 -77 -13 -75 -8 -97 10 -97 77 l0 47 78 5 c91 5
138 27 157 70 19 47 3 83 -46 102 -51 20 -75 20 -125 -3z m114 -43 c19 -19 14
-45 -14 -67 -21 -16 -41 -21 -89 -21 -59 0 -63 1 -58 21 3 11 19 33 35 50 23
23 38 29 72 29 23 0 47 -5 54 -12z"/>
<path d="M6750 479 c-14 -6 -38 -22 -54 -37 l-29 -27 6 33 c6 27 4 32 -13 32
-26 0 -34 -20 -65 -182 -31 -161 -31 -168 -5 -168 24 0 33 20 49 114 21 121
80 200 145 194 29 -3 31 -6 34 -46 2 -24 -6 -88 -17 -144 -26 -125 -26 -120 6
-116 25 3 27 8 49 118 34 172 32 200 -17 225 -32 17 -53 18 -89 4z"/>
<path d="M7055 471 c-60 -27 -83 -91 -49 -139 8 -12 34 -32 57 -43 46 -24 57
-35 57 -61 0 -50 -82 -75 -142 -44 -29 16 -38 12 -38 -16 0 -38 113 -52 175
-22 30 14 65 64 65 93 0 29 -27 62 -71 86 -27 14 -53 34 -58 43 -13 25 4 61
34 72 27 10 82 3 91 -11 8 -14 24 0 24 21 0 11 -12 22 -31 29 -44 15 -67 14
-114 -8z"/>
<path d="M7398 481 c-82 -27 -139 -116 -139 -219 -1 -47 4 -69 21 -92 25 -36
52 -44 125 -38 95 8 157 79 171 199 7 62 -10 114 -46 137 -27 17 -98 23 -132
13z m103 -62 c18 -18 21 -30 17 -78 -8 -100 -61 -171 -128 -171 -63 0 -89 53
-70 145 16 77 61 125 119 125 28 0 47 -6 62 -21z"/>
<path d="M7820 483 c-8 -3 -30 -20 -49 -37 l-33 -31 7 33 c6 29 4 32 -18 32
-23 0 -25 -6 -56 -159 -38 -191 -38 -191 -7 -191 21 0 25 7 40 87 29 148 71
213 137 216 24 2 35 7 37 21 6 28 -22 42 -58 29z"/>
<path d="M8598 465 c-20 -13 -39 -30 -42 -37 -3 -7 -4 2 -1 20 4 27 1 32 -15
32 -27 0 -35 -22 -65 -178 -31 -162 -31 -172 -5 -172 24 0 33 20 49 114 20
116 73 192 131 188 22 -2 30 3 35 19 7 23 -7 39 -35 39 -9 0 -32 -11 -52 -25z"/>
<path d="M8844 471 c-76 -35 -132 -145 -121 -239 8 -68 48 -102 123 -102 118
0 194 87 194 222 0 73 -16 103 -66 124 -45 19 -81 17 -130 -5z m120 -47 c43
-43 25 -157 -34 -216 -40 -40 -73 -48 -113 -27 -31 17 -37 28 -37 74 0 63 19
116 55 152 26 26 41 33 73 33 24 0 47 -7 56 -16z"/>
<path d="M9235 475 c-74 -26 -125 -117 -125 -221 0 -93 29 -124 116 -124 53 0
100 22 109 51 10 30 3 31 -40 9 -49 -25 -76 -25 -106 -1 -44 36 -24 167 35
226 29 29 72 33 118 9 25 -13 32 -13 39 -3 13 21 -9 47 -49 59 -46 12 -48 12
-97 -5z"/>
<path d="M9559 480 c-70 -21 -121 -87 -138 -176 -13 -66 1 -123 35 -152 25
-22 35 -24 106 -20 79 3 97 12 98 47 0 9 -6 11 -17 6 -10 -4 -43 -9 -73 -12
-74 -6 -93 8 -94 73 l-1 49 80 6 c89 7 113 16 144 55 60 76 -31 157 -140 124z
m94 -47 c4 -2 7 -17 7 -33 0 -39 -41 -60 -115 -60 -61 0 -66 7 -34 52 34 47
97 66 142 41z"/>
<path d="M9874 476 c-60 -26 -89 -89 -64 -136 5 -10 35 -33 65 -50 43 -25 55
-37 55 -56 0 -56 -75 -83 -139 -49 -31 16 -41 12 -41 -17 0 -26 45 -40 113
-36 46 3 63 10 86 32 62 59 49 119 -36 167 -49 28 -54 34 -51 62 4 46 42 62
97 43 43 -14 51 -12 51 15 0 10 -12 21 -31 28 -41 14 -67 13 -105 -3z"/>
<path d="M10170 479 c-37 -15 -68 -48 -75 -80 -9 -40 18 -80 73 -109 39 -21
48 -30 50 -57 6 -56 -71 -83 -137 -48 -31 15 -41 12 -41 -15 0 -24 42 -40 103
-40 61 1 91 15 118 56 39 59 19 109 -62 149 -35 18 -49 31 -49 46 0 56 50 80
112 55 34 -15 36 -14 41 5 10 37 -76 61 -133 38z"/>
<path d="M10704 471 c-23 -10 -49 -29 -59 -42 l-17 -24 6 38 c6 34 5 37 -16
37 -23 0 -25 -8 -56 -162 -18 -90 -33 -169 -32 -175 0 -19 38 -15 48 5 5 9 15
49 21 87 7 39 20 88 30 110 23 52 74 95 112 95 47 0 54 -33 30 -154 -30 -152
-30 -151 -1 -151 23 0 25 6 47 110 12 61 22 129 23 151 0 78 -59 111 -136 75z"/>
<path d="M11042 474 c-68 -35 -112 -124 -112 -229 0 -52 4 -66 25 -89 40 -43
136 -31 168 21 16 26 25 12 16 -24 -18 -68 -30 -90 -55 -102 -32 -14 -70 -13
-117 3 -34 12 -39 12 -44 -2 -20 -51 132 -74 198 -29 19 12 40 34 46 48 11 23
83 366 83 397 0 20 -41 14 -47 -8 -5 -19 -5 -19 -32 1 -38 28 -89 33 -129 13z
m113 -57 c24 -20 26 -27 20 -68 -10 -69 -53 -141 -97 -162 -48 -24 -74 -15
-88 29 -13 38 -2 113 25 164 32 61 93 78 140 37z"/>
<path d="M12147 476 c-52 -19 -72 -40 -103 -103 -46 -94 -35 -205 23 -232 32
-15 132 -14 163 2 30 15 43 54 14 43 -11 -5 -44 -10 -75 -13 -73 -7 -99 14
-99 81 l0 44 78 4 c85 4 125 20 155 59 24 33 16 83 -18 105 -34 22 -94 27
-138 10z m102 -51 c20 -19 6 -59 -24 -73 -14 -7 -53 -12 -86 -12 l-60 0 15 28
c38 72 110 99 155 57z"/>
<path d="M12503 478 c-46 -15 -90 -66 -113 -131 -24 -67 -25 -115 -6 -162 19
-45 47 -58 117 -53 62 4 99 27 99 59 0 16 -2 17 -32 1 -38 -19 -102 -22 -119
-5 -17 17 -22 93 -9 143 16 60 67 110 112 110 18 0 44 -7 56 -16 25 -17 42
-11 42 14 0 36 -87 60 -147 40z"/>
<path d="M13093 471 c-17 -11 -36 -28 -42 -38 -9 -15 -10 -13 -11 15 0 25 -4
32 -20 32 -22 0 -20 8 -59 -190 -16 -80 -25 -149 -21 -153 4 -5 16 -7 26 -5
14 2 22 25 39 104 28 136 66 194 128 194 28 0 37 5 42 21 13 40 -31 51 -82 20z"/>
<path d="M13325 471 c-55 -25 -82 -57 -106 -127 -30 -83 -23 -148 20 -186 27
-24 40 -28 90 -28 69 0 109 23 155 87 24 35 30 54 34 117 5 88 -8 119 -63 142
-46 19 -82 17 -130 -5z m119 -46 c57 -57 1 -231 -81 -251 -30 -8 -67 2 -87 22
-36 35 -12 160 39 211 26 26 41 33 73 33 23 0 47 -7 56 -15z"/>
<path d="M13770 479 c-14 -6 -37 -22 -52 -36 l-28 -27 0 32 c0 25 -4 32 -20
32 -11 0 -20 -1 -20 -2 0 -2 -16 -77 -34 -168 -19 -91 -30 -169 -26 -173 4 -5
16 -7 26 -5 15 2 22 19 32 68 25 129 40 166 82 204 61 55 110 46 110 -20 0
-17 -9 -76 -20 -129 -25 -123 -25 -125 4 -125 26 0 27 3 62 179 20 103 14 141
-25 164 -32 19 -54 20 -91 6z"/>
<path d="M14274 471 c-56 -25 -91 -75 -110 -154 -30 -122 3 -187 97 -187 67 0
119 24 119 56 l0 23 -42 -19 c-55 -25 -69 -25 -102 1 -31 24 -34 68 -11 146
26 88 103 129 163 87 25 -17 42 -11 42 14 0 43 -94 62 -156 33z"/>
<path d="M14563 479 c-44 -13 -73 -53 -73 -100 0 -42 14 -61 71 -89 47 -24 64
-52 49 -80 -22 -41 -96 -54 -139 -24 -19 14 -25 14 -32 3 -13 -21 -11 -26 13
-43 29 -21 120 -21 158 -1 35 18 60 62 60 104 0 30 -16 47 -90 94 -40 26 -49
51 -25 77 24 27 60 32 99 16 31 -13 35 -13 41 2 14 37 -65 62 -132 41z"/>
<path d="M10411 428 c-47 -231 -58 -288 -53 -293 8 -8 40 -6 46 3 6 9 66 310
66 329 0 7 -11 13 -24 13 -22 0 -26 -7 -35 -52z"/>
<path d="M14011 320 c-17 -88 -31 -167 -31 -175 0 -17 36 -20 46 -4 9 16 71
329 65 335 -2 2 -14 4 -26 4 -21 0 -25 -11 -54 -160z"/>
</g>
</svg>
